PathFileType	4	(X/Y/Z)	 normalP12.trc
DataRate	CameraRate	NumFrames	NumMarkers	Units	OrigDataRate	OrigDataStartFrame	OrigNumFrames
100	100	8	49	M	100	160	232
Frame#	Time	RM1D			RM5D			RM2B			LM1D			LM5D			LM2B			RCAL			LCAL			RLMAL			LLMAL			RSTL			LSTL			RFLE			LFLE			RHFIB			LHFIB			RTTUB			LTTUB			RSSH			LSSH			RTL			LTL			RTAP			RTAD			LTAP			LTAD			RTPP			RTPD			LTPP			LTPD			RPSIS			LPSIS			RASIS			LASIS			T10			T2			IJ			SA			RACR			LACR			RHLE			LHLE			RUSP			LUSP			RCB			LCB			IN			LHME			RHME			
		X1	Y1	Z1	X2	Y2	Z2	X3	Y3	Z3	X4	Y4	Z4	X5	Y5	Z5	X6	Y6	Z6	X7	Y7	Z7	X8	Y8	Z8	X9	Y9	Z9	X10	Y10	Z10	X11	Y11	Z11	X12	Y12	Z12	X13	Y13	Z13	X14	Y14	Z14	X15	Y15	Z15	X16	Y16	Z16	X17	Y17	Z17	X18	Y18	Z18	X19	Y19	Z19	X20	Y20	Z20	X21	Y21	Z21	X22	Y22	Z22	X23	Y23	Z23	X24	Y24	Z24	X25	Y25	Z25	X26	Y26	Z26	X27	Y27	Z27	X28	Y28	Z28	X29	Y29	Z29	X30	Y30	Z30	X31	Y31	Z31	X32	Y32	Z32	X33	Y33	Z33	X34	Y34	Z34	X35	Y35	Z35	X36	Y36	Z36	X37	Y37	Z37	X38	Y38	Z38	X39	Y39	Z39	X40	Y40	Z40	X41	Y41	Z41	X42	Y42	Z42	X43	Y43	Z43	X44	Y44	Z44	X45	Y45	Z45	X46	Y46	Z46	X47	Y47	Z47	X48	Y48	Z48	X49	Y49	Z49	
160	1.6000	0.418396	0.045880	-0.231907	0.364859	0.027850	-0.156624	0.363602	0.067147	-0.205546	0.536620	0.066655	-0.378122	0.468823	0.043413	-0.435250	0.484028	0.087104	-0.393346	0.202877	0.060327	-0.239041	0.349155	0.086154	-0.305844	0.255217	0.086514	-0.180707	0.384635	0.115845	-0.376436	0.252300	0.057632	-0.270174	0.410655	0.079206	-0.297976	0.374609	0.495833	-0.128068	0.513078	0.526138	-0.408838	0.338627	0.448369	-0.118933	0.477635	0.483343	-0.410893	0.390855	0.426090	-0.182681	0.544185	0.446409	-0.367101	0.360427	0.338377	-0.205964	0.473579	0.238577	-0.354910	0.392507	0.675281	-0.098601	0.495602	0.697240	-0.430882	0.493107	0.730253	-0.170795	0.475581	0.642067	-0.179002	0.567000	0.762737	-0.345031	0.586696	0.687376	-0.347213	0.275157	0.700022	-0.149895	0.274728	0.620487	-0.164646	0.371347	0.671129	-0.360841	0.403699	0.612442	-0.351593	0.261256	1.024601	-0.195751	0.262333	1.025970	-0.284685	0.471872	0.978605	-0.138492	0.470420	0.986786	-0.354586	0.253285	1.227235	-0.248581	0.238142	1.468404	-0.252052	0.411951	1.463499	-0.253655	0.436905	1.425033	-0.254884	0.330671	1.481276	-0.045015	0.345934	1.475759	-0.459864	0.369310	1.157880	0.039314	0.332650	1.149114	-0.521491	0.530240	0.951093	0.052684	0.438522	0.911077	-0.557186	0.428925	1.661888	-0.189707	0.423715	1.654535	-0.332303	0.264255	1.555318	-0.257836	0.305953	1.132168	-0.448962	0.331227	1.134960	-0.025933	
161	1.6100	0.418628	0.045902	-0.231647	0.364716	0.027822	-0.156626	0.363939	0.067282	-0.205208	0.575561	0.068058	-0.377800	0.510307	0.040775	-0.436211	0.522150	0.085132	-0.393915	0.203521	0.061416	-0.239067	0.385292	0.075910	-0.309173	0.255676	0.087330	-0.181143	0.421312	0.108228	-0.379809	0.253402	0.059111	-0.270154	0.447713	0.072546	-0.299483	0.378843	0.495601	-0.127648	0.525531	0.525378	-0.406328	0.342287	0.448514	-0.118701	0.491731	0.480861	-0.409085	0.394320	0.425643	-0.182188	0.559509	0.447033	-0.364576	0.363322	0.338323	-0.205579	0.501236	0.235557	-0.355251	0.399102	0.674925	-0.098191	0.505472	0.696283	-0.429519	0.500845	0.729057	-0.169985	0.482209	0.640999	-0.178575	0.577828	0.762576	-0.344060	0.598081	0.687573	-0.346190	0.282366	0.701037	-0.150668	0.280960	0.621494	-0.165221	0.383313	0.670516	-0.358939	0.415040	0.611913	-0.349696	0.271428	1.024044	-0.196379	0.272865	1.025331	-0.285241	0.481660	0.978034	-0.137897	0.481294	0.985950	-0.354072	0.263804	1.226735	-0.248799	0.249172	1.467938	-0.251851	0.422961	1.462774	-0.253523	0.447849	1.424234	-0.254690	0.341708	1.481045	-0.044950	0.356669	1.474811	-0.459766	0.382881	1.158264	0.040511	0.340890	1.148328	-0.521535	0.547305	0.954057	0.053163	0.445029	0.909719	-0.558493	0.440035	1.661546	-0.190064	0.434757	1.653724	-0.332668	0.275366	1.554708	-0.257806	0.314857	1.131416	-0.448660	0.345014	1.134655	-0.024522	
162	1.6200	0.419001	0.045946	-0.231387	0.364624	0.027848	-0.156804	0.366156	0.067878	-0.204418	0.613766	0.069985	-0.376750	0.551678	0.039323	-0.436517	0.560040	0.084114	-0.394169	0.204173	0.062548	-0.240306	0.422883	0.066874	-0.311117	0.256039	0.087982	-0.181736	0.457747	0.101268	-0.381692	0.254343	0.059981	-0.270845	0.484570	0.067067	-0.300866	0.383114	0.495345	-0.127205	0.537344	0.524222	-0.403916	0.345887	0.448609	-0.118518	0.504981	0.478069	-0.407401	0.397998	0.425148	-0.181530	0.574118	0.447305	-0.362025	0.366523	0.338227	-0.205186	0.529127	0.233183	-0.355215	0.405719	0.674583	-0.097767	0.516288	0.695071	-0.428326	0.508496	0.727834	-0.169242	0.489027	0.639840	-0.178003	0.588263	0.761774	-0.342903	0.608995	0.687149	-0.344869	0.289575	0.701934	-0.151357	0.287350	0.622444	-0.165854	0.394625	0.669567	-0.357667	0.425094	0.610948	-0.348232	0.282184	1.023173	-0.197192	0.283429	1.024441	-0.285829	0.491417	0.977369	-0.137305	0.492135	0.984946	-0.353583	0.274271	1.226125	-0.249148	0.260240	1.467353	-0.251751	0.434027	1.461846	-0.253480	0.458873	1.423301	-0.254565	0.352761	1.480655	-0.044962	0.367408	1.473818	-0.459802	0.396350	1.158382	0.041483	0.349346	1.147462	-0.521540	0.564102	0.956813	0.053522	0.451749	0.908327	-0.559748	0.451231	1.660968	-0.190446	0.445922	1.652803	-0.332996	0.286569	1.553952	-0.257836	0.323853	1.130625	-0.448468	0.358683	1.134221	-0.023481	
163	1.6300	0.419243	0.045887	-0.231221	0.364469	0.027868	-0.156887	0.365232	0.067653	-0.204979	0.651619	0.072943	-0.375035	0.592432	0.039197	-0.436056	0.597535	0.084076	-0.393452	0.204674	0.063850	-0.241071	0.459975	0.059298	-0.313044	0.255475	0.089020	-0.182759	0.494202	0.095634	-0.382987	0.254833	0.060765	-0.271359	0.521273	0.062934	-0.301831	0.387362	0.495111	-0.126838	0.549595	0.522881	-0.402073	0.349509	0.448669	-0.118472	0.518967	0.475264	-0.405788	0.401842	0.424623	-0.180777	0.588092	0.447224	-0.359745	0.369795	0.338125	-0.204902	0.556456	0.231374	-0.355071	0.412435	0.674161	-0.097396	0.527396	0.693548	-0.426958	0.516372	0.726651	-0.168288	0.496024	0.638726	-0.177187	0.598369	0.760331	-0.341610	0.619191	0.685978	-0.343278	0.296946	0.702695	-0.152045	0.293932	0.623339	-0.166420	0.404960	0.668394	-0.357105	0.434103	0.609536	-0.347407	0.292275	1.022205	-0.197932	0.294060	1.023254	-0.286413	0.501276	0.976651	-0.136749	0.503144	0.983868	-0.353072	0.284719	1.225409	-0.249571	0.271350	1.466646	-0.251716	0.445122	1.460801	-0.253469	0.469890	1.422182	-0.254527	0.363894	1.480091	-0.045069	0.378320	1.472731	-0.459818	0.409656	1.158318	0.042198	0.357923	1.146556	-0.521698	0.580550	0.959349	0.053828	0.458727	0.906878	-0.560867	0.462477	1.660202	-0.190787	0.457098	1.651729	-0.333356	0.297801	1.553026	-0.257933	0.333039	1.129750	-0.448276	0.372328	1.133613	-0.022736	
164	1.6400	0.419386	0.045912	-0.230954	0.364411	0.027793	-0.156959	0.365555	0.067828	-0.204690	0.688624	0.076831	-0.372555	0.632211	0.040446	-0.434897	0.634374	0.085120	-0.392099	0.205166	0.064935	-0.241891	0.496761	0.053417	-0.313985	0.255830	0.089885	-0.183196	0.530443	0.091143	-0.383721	0.255513	0.061721	-0.271783	0.558853	0.060819	-0.300889	0.391801	0.494801	-0.126551	0.560514	0.520979	-0.400320	0.353311	0.448713	-0.118514	0.531717	0.472178	-0.404682	0.405785	0.423988	-0.180153	0.601557	0.446981	-0.357824	0.373197	0.338096	-0.204715	0.584505	0.230826	-0.354075	0.419124	0.673621	-0.097028	0.537276	0.691673	-0.426256	0.524119	0.725375	-0.167294	0.503165	0.637518	-0.176047	0.608259	0.758283	-0.340242	0.628640	0.684028	-0.341373	0.304336	0.703397	-0.152691	0.300518	0.624104	-0.167004	0.414466	0.667076	-0.357260	0.442485	0.607666	-0.347430	0.302508	1.020956	-0.198644	0.304814	1.021792	-0.286968	0.511153	0.975839	-0.136188	0.514235	0.982624	-0.352542	0.295193	1.224559	-0.249987	0.282527	1.465806	-0.251793	0.456252	1.459590	-0.253543	0.480983	1.420911	-0.254549	0.375064	1.479312	-0.045233	0.389292	1.471563	-0.459937	0.422807	1.157952	0.042748	0.366724	1.145465	-0.521813	0.596695	0.961549	0.054048	0.465960	0.905332	-0.561953	0.473845	1.659251	-0.191164	0.468360	1.650566	-0.333701	0.309122	1.551991	-0.258037	0.342434	1.128756	-0.448118	0.385905	1.132772	-0.022257	
165	1.6500	0.419637	0.046003	-0.230602	0.364163	0.027763	-0.157050	0.365999	0.068058	-0.204429	0.724514	0.081703	-0.369279	0.671265	0.042626	-0.432853	0.670151	0.087226	-0.389977	0.205676	0.066089	-0.242734	0.532812	0.049025	-0.315256	0.256051	0.090679	-0.183773	0.565822	0.088257	-0.383446	0.256339	0.062246	-0.272008	0.594307	0.059878	-0.299124	0.396398	0.494351	-0.126273	0.571340	0.518799	-0.399082	0.357427	0.448805	-0.118407	0.545730	0.469239	-0.404788	0.409642	0.423323	-0.179947	0.614607	0.446829	-0.356284	0.376745	0.337907	-0.204368	0.610798	0.230883	-0.352924	0.425893	0.673069	-0.096622	0.547466	0.689577	-0.425646	0.532037	0.723958	-0.166054	0.510294	0.636182	-0.174734	0.617995	0.755712	-0.338818	0.637288	0.681354	-0.339195	0.311710	0.703913	-0.153477	0.307146	0.624801	-0.167715	0.423455	0.665755	-0.358033	0.450688	0.605429	-0.348195	0.312861	1.019364	-0.199366	0.315629	1.020138	-0.287509	0.521121	0.974936	-0.135513	0.525533	0.981215	-0.351965	0.305670	1.223575	-0.250479	0.293738	1.464788	-0.251946	0.467467	1.458229	-0.253685	0.492100	1.419439	-0.254646	0.386337	1.478364	-0.045447	0.400467	1.470296	-0.460089	0.435814	1.157335	0.043048	0.375707	1.144354	-0.522017	0.612519	0.963466	0.054171	0.472789	0.903690	-0.563595	0.485162	1.658115	-0.191525	0.479719	1.649276	-0.334036	0.320495	1.550806	-0.258273	0.351946	1.127677	-0.448029	0.399389	1.131737	-0.022097	
166	1.6600	0.419381	0.045969	-0.230645	0.363942	0.027737	-0.157149	0.366145	0.068229	-0.204377	0.759109	0.087562	-0.365158	0.708609	0.046187	-0.429614	0.704916	0.090616	-0.386566	0.206212	0.067319	-0.243691	0.567972	0.046352	-0.314426	0.256334	0.091674	-0.184303	0.600323	0.086720	-0.382279	0.256819	0.063433	-0.272886	0.628903	0.060227	-0.297124	0.401111	0.493878	-0.126023	0.581562	0.516443	-0.398459	0.361035	0.448790	-0.118632	0.558458	0.465974	-0.404873	0.413800	0.422571	-0.179529	0.627263	0.446724	-0.355092	0.380320	0.337503	-0.203772	0.635484	0.231618	-0.351436	0.432517	0.672357	-0.096156	0.557609	0.687419	-0.425401	0.540220	0.722571	-0.164617	0.517399	0.634735	-0.173591	0.627519	0.752559	-0.337346	0.645176	0.677951	-0.336854	0.319272	0.704316	-0.154524	0.313975	0.625298	-0.168724	0.431270	0.664293	-0.360330	0.458868	0.603073	-0.349486	0.323186	1.017654	-0.200189	0.326615	1.018120	-0.288121	0.531146	0.973847	-0.134750	0.537046	0.979709	-0.351353	0.316244	1.222453	-0.251000	0.304976	1.463601	-0.252222	0.478665	1.456644	-0.253912	0.503229	1.417813	-0.254864	0.397601	1.477197	-0.045756	0.411739	1.468921	-0.460359	0.448673	1.156511	0.043133	0.384992	1.143084	-0.522286	0.628053	0.965042	0.054144	0.480454	0.901945	-0.564625	0.496548	1.656807	-0.191875	0.491118	1.647851	-0.334387	0.331897	1.549528	-0.258588	0.361658	1.126526	-0.448067	0.414420	1.129634	-0.021954	
167	1.6700	0.419524	0.045977	-0.230424	0.363677	0.027756	-0.157215	0.366586	0.068444	-0.204176	0.792018	0.094616	-0.360373	0.743911	0.051066	-0.425425	0.738064	0.095086	-0.382713	0.206782	0.068352	-0.244905	0.601190	0.045141	-0.313353	0.256725	0.092607	-0.184808	0.633280	0.086212	-0.380271	0.257773	0.064195	-0.273249	0.661875	0.061727	-0.294535	0.406040	0.493328	-0.125724	0.591617	0.513976	-0.398502	0.365426	0.448776	-0.118585	0.569879	0.462333	-0.404962	0.418061	0.421602	-0.178913	0.639557	0.446622	-0.354229	0.382971	0.336843	-0.203697	0.659912	0.233051	-0.349370	0.439267	0.671519	-0.095723	0.568080	0.685249	-0.425421	0.548166	0.720809	-0.163387	0.524541	0.633119	-0.172654	0.636916	0.748973	-0.335712	0.652468	0.674057	-0.334588	0.327064	0.704625	-0.155877	0.321028	0.625669	-0.169985	0.440702	0.662678	-0.361599	0.466343	0.600599	-0.352347	0.333702	1.015671	-0.201038	0.337714	1.015936	-0.288790	0.541320	0.972574	-0.134017	0.548738	0.978122	-0.350774	0.326892	1.221097	-0.251609	0.316232	1.462199	-0.252609	0.489921	1.454942	-0.254219	0.514420	1.416060	-0.255117	0.408954	1.475858	-0.046120	0.423134	1.467383	-0.460723	0.461406	1.155378	0.043022	0.394440	1.141749	-0.522634	0.643264	0.966301	0.054058	0.488336	0.900049	-0.565618	0.508005	1.655277	-0.192260	0.502598	1.646299	-0.334756	0.343305	1.548054	-0.258967	0.371532	1.125244	-0.448158	0.427551	1.128271	-0.022397	
